<?xml version="1.0" encoding="UTF-8"?>
<svg width="127px" height="31px" viewBox="0 0 127 31" version="1.1" xmlns="http://www.w3.org/2000/svg">
    <!-- Generator: Sketch 55 (78076) - https://sketchapp.com -->
    <title>编组 2</title>
    <desc>Created with Sketch.</desc>
    <defs>
        <linearGradient x1="50%" y1="0%" x2="50%" y2="100%" id="linearGradient-1">
            <stop stop-color="#FEFEFF" offset="0%"></stop>
            <stop stop-color="#D6E0F0" offset="100%"></stop>
        </linearGradient>
    </defs>
    <g id="Page-1" stroke="none" stroke-width="1" fill="none" fill-rule="evenodd">
        <g id="黑名单查询-缺省页" transform="translate(-30.000000, -15.000000)">
            <g id="编组-2" transform="translate(30.000000, 13.730495)">
                <g id="Group-11" transform="translate(0.000000, 2.000000)" fill="url(#linearGradient-1)">
                    <path d="M12.5,-1.3500312e-13 C14.6494967,0.781989463 17.0364271,1.76446757 19.6607911,2.94743432 C20.2540177,5.42340529 22.3208849,7.41688554 25,7.81692423 C25,18.3299408 20.8333333,25.7242994 12.5,30 C4.16666667,25.7242994 5.0620475e-16,18.3299408 -7.10542736e-15,7.81692423 C2.67911508,7.41688554 4.7459823,5.42340529 5.33920886,2.94743432 C7.96357289,1.76446757 10.3505033,0.781989463 12.5,-1.3500312e-13 Z M15.623832,16.0110015 C16.1548261,15.2459944 16.4665982,14.3133787 16.4665982,13.3069583 C16.4665982,10.7084949 14.3882823,8.60202405 11.8245496,8.60202405 C9.26081696,8.60202405 7.18250101,10.7084949 7.18250101,13.3069583 C7.18250101,15.9054217 9.26081696,18.0118925 11.8245496,18.0118925 C12.6179646,18.0118925 13.3648884,17.8101438 14.0181071,17.4545001 L16.8581254,20.332992 L18.3730903,18.7975039 L15.623832,16.0110015 Z M11.8245496,15.8403844 C10.4440782,15.8403844 9.32498498,14.7061309 9.32498498,13.3069583 C9.32498498,11.9077857 10.4440782,10.7735322 11.8245496,10.7735322 C13.205021,10.7735322 14.3241142,11.9077857 14.3241142,13.3069583 C14.3241142,14.7061309 13.205021,15.8403844 11.8245496,15.8403844 Z" id="Combined-Shape"></path>
                </g>
                <text id="职场背调" font-family="MicrosoftYaHeiUI-Bold, Microsoft YaHei UI" font-size="23" font-weight="bold" fill="#FFFFFF">
                    <tspan x="36" y="25">职场背调</tspan>
                </text>
            </g>
        </g>
    </g>
</svg>